<?xml version="1.0" standalone="no"?>
<!DOCTYPE svg PUBLIC "-//W3C//DTD SVG 20010904//EN"
 "http://www.w3.org/TR/2001/REC-SVG-20010904/DTD/svg10.dtd">
<svg version="1.0" xmlns="http://www.w3.org/2000/svg"
 width="1024.000000pt" height="729.000000pt" viewBox="0 0 1024.000000 729.000000"
 preserveAspectRatio="xMidYMid meet" style="background:#f6f7f9">

<g transform="translate(0.000000,729.000000) scale(0.100000,-0.100000)"
fill="#000000" stroke="#FFC0CB">
<path d="M7065 6668 c-36 -20 -67 -52 -105 -111 -40 -61 -125 -157 -139 -157
-5 0 -14 -7 -21 -15 -14 -17 -108 -63 -195 -95 -33 -12 -73 -28 -90 -35 -16
-8 -43 -16 -60 -20 -16 -4 -49 -15 -72 -26 -24 -10 -54 -19 -67 -19 -14 0 -35
-4 -48 -9 -57 -22 -186 -59 -248 -71 -25 -5 -67 -14 -95 -21 -27 -6 -81 -13
-120 -15 -38 -3 -79 -9 -90 -14 -11 -5 -40 -11 -65 -13 -25 -2 -91 -16 -148
-31 -57 -14 -116 -26 -132 -26 -16 0 -32 -4 -35 -10 -3 -5 -17 -10 -30 -10
-13 0 -27 -4 -30 -10 -3 -5 -21 -10 -40 -10 -19 0 -36 -4 -39 -9 -3 -4 -26
-14 -51 -21 -25 -7 -64 -26 -85 -41 -22 -16 -42 -29 -45 -29 -17 0 -126 -84
-167 -128 l-47 -50 -103 -5 c-57 -3 -125 -10 -153 -15 -131 -24 -182 -37 -204
-54 -13 -10 -34 -18 -46 -18 -12 0 -40 -14 -61 -31 -50 -40 -231 -161 -281
-189 -21 -11 -51 -28 -68 -38 -65 -38 -107 -45 -240 -44 -71 1 -134 7 -139 12
-6 6 -27 10 -47 10 -44 0 -93 -36 -103 -76 -18 -70 70 -197 159 -233 6 -2 19
-11 30 -21 28 -23 230 -88 301 -96 57 -6 94 -25 94 -48 1 -13 111 -121 163
-160 20 -15 37 -32 37 -39 0 -7 18 -28 40 -47 22 -19 62 -55 88 -80 26 -25 76
-65 111 -89 36 -24 74 -52 85 -62 11 -11 25 -19 32 -19 6 0 17 -6 23 -14 7 -8
24 -17 38 -21 15 -3 38 -15 51 -26 14 -10 34 -19 46 -19 12 0 39 -9 60 -20 75
-41 408 -44 576 -5 165 37 276 67 317 86 23 10 51 19 62 19 11 0 37 9 58 21
20 11 69 32 107 46 83 29 141 61 212 114 28 22 55 39 60 39 5 0 33 18 62 40
29 22 56 40 61 40 5 0 67 57 138 128 112 109 161 167 208 243 6 9 32 50 59 90
52 79 75 125 123 254 69 183 83 233 112 423 12 78 64 163 184 301 19 22 96
143 108 171 6 14 20 42 30 63 25 51 28 281 4 326 -22 43 -88 63 -130 39z m41
-140 c-11 -67 -91 -268 -108 -268 -4 0 -8 -5 -8 -11 0 -6 -12 -25 -26 -43 -39
-48 -207 -216 -216 -216 -9 0 -100 -62 -133 -91 -62 -53 -295 -150 -505 -209
-226 -64 -304 -90 -323 -109 -6 -6 -17 -11 -23 -11 -7 0 -32 -13 -56 -29 -24
-15 -63 -39 -88 -52 -25 -14 -77 -46 -117 -72 -40 -26 -77 -47 -83 -47 -7 0
-29 -15 -50 -33 -21 -18 -55 -42 -77 -53 -21 -12 -63 -34 -93 -51 -51 -28 -96
-45 -245 -92 -69 -22 -230 -54 -355 -71 -47 -6 -104 -15 -128 -20 -23 -6 -64
-10 -92 -10 -27 0 -52 -4 -55 -10 -3 -6 -48 -10 -100 -10 -79 0 -96 3 -104 18
-9 15 -10 15 -11 0 0 -20 -27 -27 -59 -16 -13 5 -28 5 -35 0 -13 -11 -224 2
-276 17 -19 5 -62 17 -94 26 -36 9 -77 30 -102 50 -23 19 -46 35 -51 35 -9 0
-37 40 -31 45 2 1 26 -3 53 -11 28 -7 102 -13 165 -13 101 -1 125 3 197 28 45
15 88 34 96 42 9 8 39 28 68 44 29 17 63 40 76 53 13 12 28 22 34 22 5 0 15 5
22 10 33 28 107 78 147 99 25 14 56 33 70 43 14 10 52 23 85 29 33 6 83 15
110 20 28 6 103 13 167 17 l117 7 33 47 c52 73 171 154 283 193 28 9 59 21 70
25 41 16 131 43 170 50 22 4 94 19 160 33 66 14 194 38 285 52 91 14 179 29
195 34 17 5 68 19 115 31 227 58 483 149 618 218 69 35 178 135 228 209 72
108 91 120 80 51z m-278 -585 c-28 -34 -47 -99 -68 -227 -21 -125 -73 -303
-111 -377 -10 -20 -26 -58 -37 -85 -35 -93 -205 -330 -292 -408 -25 -23 -56
-52 -70 -66 -72 -73 -284 -213 -420 -278 -147 -70 -309 -124 -475 -158 -38 -8
-78 -19 -87 -24 -10 -6 -45 -10 -77 -10 -33 0 -63 -4 -66 -10 -4 -6 -59 -10
-131 -10 -116 0 -132 2 -223 34 -199 69 -273 117 -495 320 -117 106 -179 168
-246 246 l-55 63 35 -8 c52 -12 273 1 435 26 39 5 93 11 120 13 28 2 66 8 85
14 19 6 62 16 95 23 118 24 254 61 336 92 86 33 246 113 286 143 17 13 35 24
40 24 4 0 26 14 47 30 22 17 43 30 48 30 5 0 27 12 51 27 23 15 58 35 77 44
19 9 57 33 85 54 79 61 191 105 370 147 95 21 172 40 200 49 100 29 221 72
230 80 5 5 17 9 27 9 10 0 18 5 18 10 0 6 5 10 11 10 14 0 124 75 151 104 62
66 153 124 106 69z"/>
<path d="M3047 4193 c-4 -3 -26 -10 -49 -14 -86 -16 -124 -27 -181 -53 -32
-14 -65 -26 -75 -26 -26 0 -232 -120 -312 -183 -119 -92 -148 -127 -201 -239
-14 -32 -27 -36 -35 -10 -13 40 -49 118 -63 135 -8 9 -19 25 -25 36 -45 76
-76 109 -187 201 -68 56 -180 101 -304 122 -121 21 -456 11 -471 -13 -3 -5
-13 -9 -23 -9 -19 0 -128 -56 -148 -76 -7 -7 -27 -21 -45 -32 -18 -11 -46 -41
-62 -66 -16 -25 -32 -46 -36 -46 -15 0 -93 -138 -131 -235 -14 -34 -21 -105
-26 -249 -3 -121 -1 -151 18 -225 36 -144 105 -271 195 -362 54 -55 209 -169
230 -169 5 0 41 -13 79 -28 39 -16 88 -32 110 -36 22 -5 63 -13 90 -18 64 -14
364 -14 475 0 116 14 156 24 217 55 29 15 65 27 81 27 15 0 33 5 39 11 9 9 19
6 41 -10 17 -11 33 -21 36 -21 4 0 25 -12 49 -27 70 -46 88 -53 126 -53 20 0
42 -5 48 -11 16 -16 301 0 348 20 11 5 36 15 55 22 19 7 64 30 99 51 34 21 66
38 71 38 4 0 18 11 32 24 14 12 41 32 60 44 18 11 44 32 57 46 14 14 28 26 33
26 4 0 8 -29 8 -65 0 -92 38 -158 113 -197 32 -16 53 -19 125 -15 97 5 140 13
162 32 8 7 47 29 85 50 39 20 93 54 120 76 54 42 71 49 59 22 -4 -10 -9 -37
-12 -60 -3 -37 0 -47 26 -73 28 -28 36 -30 100 -30 53 0 80 5 113 23 42 22 99
87 99 114 0 7 16 36 35 63 19 27 35 53 35 56 0 10 61 85 108 133 23 24 50 57
59 72 18 29 33 38 33 18 0 -6 -13 -29 -28 -52 -32 -48 -84 -155 -101 -208 -28
-90 -3 -204 50 -223 27 -9 173 18 194 36 5 4 18 8 30 8 12 0 26 5 32 11 9 9
24 1 59 -30 l47 -41 86 0 c95 0 155 16 206 55 17 14 37 25 43 25 6 0 31 17 55
38 61 51 72 62 106 102 l30 35 1 -68 c0 -123 26 -147 160 -147 103 0 154 13
222 56 32 21 43 24 47 13 2 -8 17 -26 32 -41 22 -23 36 -28 75 -28 44 0 159
29 211 53 20 9 28 5 64 -31 l41 -42 86 0 c98 0 163 19 239 69 26 17 50 31 54
31 5 0 15 -13 24 -29 19 -38 66 -71 99 -71 15 0 59 9 98 20 40 11 80 20 90 20
9 0 37 14 61 30 52 35 73 38 82 11 3 -11 19 -34 35 -50 27 -30 31 -31 112 -30
63 0 90 5 113 19 83 53 78 52 115 14 32 -35 34 -35 99 -31 82 5 127 17 196 52
l53 27 36 -27 c43 -33 155 -59 192 -45 14 6 40 10 57 10 29 0 58 9 166 52 27
10 35 10 38 1 13 -36 43 -56 112 -73 52 -13 81 -16 104 -9 18 5 49 9 69 9 37
0 141 41 153 60 3 6 27 19 52 31 25 11 55 31 67 43 11 12 42 37 68 54 46 32
98 89 98 109 0 5 9 18 20 28 17 15 20 31 20 95 0 49 -5 88 -15 106 -14 28 -13
30 11 49 71 55 92 78 116 127 64 132 61 193 -13 241 -37 25 -49 27 -142 27
-55 0 -117 -5 -136 -11 -118 -37 -252 -119 -321 -195 -25 -28 -53 -53 -63 -57
-9 -3 -22 -18 -27 -32 -5 -14 -13 -25 -18 -25 -9 0 -102 -123 -102 -135 0 -3
-13 -26 -30 -50 -16 -24 -30 -53 -30 -64 0 -11 -4 -23 -10 -26 -5 -3 -10 -21
-10 -39 0 -40 -19 -59 -57 -54 -25 3 -28 7 -25 33 2 17 10 37 17 45 8 8 44 76
81 150 36 74 84 167 105 205 21 39 50 102 66 140 15 39 38 85 50 104 33 48 32
128 -1 164 -29 32 -67 43 -94 28 -12 -6 -36 -11 -55 -11 -19 0 -46 -9 -60 -20
-14 -11 -30 -20 -36 -20 -6 0 -18 -12 -28 -27 -42 -68 -76 -103 -97 -103 -37
0 -37 11 0 53 31 33 35 45 31 73 -8 45 -28 85 -51 98 -11 6 -28 19 -38 29 -44
41 -159 7 -205 -63 -37 -53 -38 -75 -10 -130 l26 -49 -31 -16 c-17 -8 -39 -15
-49 -15 -10 0 -21 -4 -24 -10 -6 -10 -65 -14 -65 -4 0 3 9 22 19 42 51 98 81
166 81 183 0 10 4 20 9 23 5 3 11 20 14 38 3 18 10 51 17 73 25 86 24 102 -8
135 -27 27 -37 30 -90 30 -34 0 -72 -7 -88 -15 -16 -8 -46 -18 -67 -21 -20 -4
-40 -11 -43 -15 -3 -5 -20 -9 -38 -9 -52 0 -86 -40 -86 -101 0 -36 5 -54 20
-69 21 -21 25 -40 12 -56 -5 -5 -15 -25 -22 -44 -29 -75 -80 -180 -88 -180 -4
0 -13 5 -19 11 -18 18 -276 -1 -289 -22 -3 -5 -23 -9 -44 -9 -22 0 -49 -4 -62
-9 -13 -5 -54 -19 -93 -32 -74 -24 -227 -100 -260 -129 -11 -10 -30 -23 -42
-29 -20 -10 -56 -39 -155 -124 -21 -18 -45 -47 -55 -64 -16 -29 -33 -43 -33
-27 0 3 25 56 55 117 30 61 55 118 55 126 0 9 7 25 15 35 23 31 18 69 -16 116
l-31 42 -56 -6 c-156 -15 -164 -20 -219 -131 -52 -104 -148 -252 -180 -278
-13 -10 -23 -24 -23 -31 0 -19 -118 -138 -132 -133 -10 4 -10 6 0 6 6 1 12 7
12 15 0 7 7 19 15 26 15 13 75 130 75 147 0 6 8 17 18 26 10 9 31 45 46 79 16
35 32 71 37 80 5 10 9 46 9 82 0 55 -3 67 -26 90 -24 24 -34 26 -103 26 -43 0
-81 -4 -87 -9 -5 -4 -23 -11 -40 -14 -25 -5 -36 -1 -55 19 -23 24 -28 25 -99
20 -230 -18 -319 -49 -411 -142 -29 -30 -58 -54 -64 -54 -7 0 -10 20 -7 58 4
51 1 62 -22 89 -68 81 -270 54 -399 -54 -32 -26 -47 -23 -47 11 0 13 -12 35
-27 50 -26 26 -31 27 -98 23 -38 -3 -89 -10 -112 -16 -98 -26 -123 -29 -131
-16 -4 7 -23 22 -42 34 -29 17 -51 21 -132 21 -54 0 -100 -4 -103 -10 -3 -5
-15 -10 -26 -10 -20 0 -28 -3 -94 -39 -22 -12 -59 -31 -82 -42 -24 -12 -43
-25 -43 -30 0 -5 -6 -9 -13 -9 -7 0 -22 -8 -33 -18 -10 -10 -35 -28 -54 -42
-19 -13 -43 -33 -52 -43 -24 -27 -38 -13 -38 41 0 55 -53 160 -89 178 -12 6
-27 18 -34 26 -31 39 -205 107 -275 109 l-37 0 45 21 c221 103 230 110 230
168 0 37 -20 64 -64 87 -17 9 -18 21 -17 110 2 96 1 100 -25 126 -24 24 -34
27 -99 27 -39 0 -75 -3 -78 -7z m119 -130 c-3 -32 -9 -91 -12 -130 l-7 -73 34
0 c52 0 63 -13 26 -29 -54 -24 -201 -91 -219 -101 -27 -15 -30 2 -29 130 2
109 0 120 -18 129 -25 14 -108 14 -116 1 -3 -5 -17 -10 -31 -10 -13 0 -32 -4
-42 -9 -9 -5 -30 -15 -47 -22 -33 -14 -124 -79 -167 -118 -41 -36 -68 -95 -68
-147 0 -39 3 -46 28 -55 15 -6 63 -14 107 -19 44 -5 94 -12 111 -15 39 -9 48
4 45 63 -1 25 1 58 5 75 l6 30 15 -34 c8 -19 20 -45 25 -59 28 -71 32 -75 78
-77 25 -2 79 -7 120 -13 270 -38 382 -115 398 -271 16 -167 -189 -427 -452
-574 -109 -61 -180 -78 -326 -79 -132 -1 -136 0 -202 31 -38 18 -84 44 -103
58 -19 15 -50 30 -68 35 -42 9 -132 -9 -207 -42 -121 -53 -312 -79 -500 -67
-494 32 -790 314 -790 753 0 163 30 276 105 391 25 39 98 129 108 133 4 2 21
15 37 28 109 92 283 134 476 114 60 -6 127 -16 149 -22 272 -72 429 -248 525
-588 7 -25 21 -72 31 -105 10 -33 27 -90 39 -127 11 -37 20 -72 20 -77 0 -10
45 -106 76 -164 8 -15 26 -34 38 -42 23 -15 56 -11 56 7 0 5 18 36 40 69 22
33 40 62 40 64 0 1 26 43 58 91 125 190 142 219 140 234 -3 11 -24 16 -88 21
-146 11 -264 51 -290 99 -15 28 -12 88 7 128 28 63 167 187 271 243 26 14 77
42 113 62 36 20 75 37 85 37 11 0 24 4 29 8 32 27 244 88 314 91 l33 1 -6 -57z
m4556 -128 c-3 -28 -21 -89 -44 -155 -15 -43 -240 -507 -349 -721 -11 -20 -19
-43 -19 -52 0 -13 -29 -94 -51 -142 -5 -11 -11 -33 -12 -50 -2 -26 1 -30 23
-28 46 4 95 15 108 25 19 16 15 -16 -5 -36 -66 -64 -158 -116 -205 -116 -15 0
-37 9 -49 21 -17 17 -20 30 -16 72 6 80 44 202 93 306 24 51 44 95 44 98 0 3
18 42 40 88 22 46 40 88 40 94 0 6 5 11 10 11 6 0 10 5 10 10 0 6 13 39 29 73
56 120 91 198 91 202 0 3 18 44 41 91 48 103 48 127 0 134 -46 7 -51 26 -9 35
18 3 42 10 53 14 58 24 142 49 160 48 14 -2 19 -8 17 -22z m-4852 -65 c0 -55
-9 -63 -42 -35 -16 14 -39 25 -50 25 -35 0 -13 25 33 36 53 14 59 11 59 -26z
m-170 -52 c-12 -19 -20 -51 -20 -75 l0 -43 -56 0 c-56 0 -56 0 -49 27 6 24 39
63 54 63 3 0 18 11 32 23 21 20 35 29 56 36 2 1 -6 -14 -17 -31z m5300 -113
c24 -25 23 -30 -16 -71 -19 -21 -70 -26 -88 -9 -29 29 -16 69 29 93 31 17 50
14 75 -13z m390 -75 c0 -6 -4 -18 -9 -28 -5 -9 -35 -69 -67 -132 -31 -63 -77
-151 -101 -195 -23 -44 -63 -123 -89 -175 -25 -52 -50 -102 -55 -110 -32 -54
-57 -128 -66 -193 l-5 -39 53 6 c30 3 74 8 98 12 55 8 53 -11 -5 -43 -88 -51
-265 -73 -294 -38 -17 21 -15 77 6 123 27 62 111 231 172 347 67 126 115 242
107 255 -3 5 -23 17 -43 27 l-37 18 40 3 c50 4 96 39 130 96 27 45 52 63 100
69 57 7 65 7 65 -3z m-5977 -240 c25 0 58 -7 125 -26 16 -4 -1 -39 -59 -123
-21 -31 -39 -61 -39 -67 0 -7 -13 -26 -30 -44 l-30 -32 -20 47 c-11 26 -31 87
-45 134 -13 47 -31 106 -40 130 -25 71 -20 75 47 26 40 -29 72 -45 91 -45z
m1690 65 c41 -17 48 -31 40 -79 -9 -58 -109 -150 -216 -200 -102 -47 -207 -59
-253 -29 -24 15 -27 15 -52 -4 -15 -11 -46 -57 -69 -104 -41 -80 -43 -88 -43
-174 0 -58 4 -95 12 -103 7 -7 36 -12 65 -12 99 0 225 78 292 180 61 94 121
155 121 123 0 -9 -21 -74 -34 -103 -44 -104 -257 -255 -414 -296 -68 -17 -71
-17 -112 1 -58 26 -80 65 -80 138 0 78 24 157 73 242 48 83 143 201 189 235
222 164 383 226 481 185z m1457 -12 c0 -13 -45 -84 -80 -126 -8 -10 -27 -25
-42 -33 -31 -16 -41 -3 -25 33 18 40 3 53 -58 53 -64 0 -132 -32 -141 -66 -8
-32 15 -172 46 -279 19 -63 23 -112 11 -119 -6 -4 -11 -16 -11 -27 0 -32 -112
-141 -187 -180 -78 -42 -161 -64 -201 -54 -32 8 -80 51 -92 82 -10 24 7 27
-190 -37 -52 -17 -100 -28 -108 -25 -15 6 -11 35 18 125 21 67 53 128 127 245
82 130 157 281 147 296 -9 16 -36 10 -92 -22 -62 -35 -195 -142 -232 -187 -14
-16 -51 -57 -82 -91 -61 -65 -153 -200 -189 -276 -12 -26 -32 -53 -45 -62 -33
-21 -105 -36 -117 -24 -11 11 27 113 72 195 121 219 201 405 201 468 0 19 -4
20 -50 15 -48 -6 -50 -5 -50 18 0 18 5 25 20 25 10 0 45 7 77 16 62 17 118 30
171 40 34 7 40 -1 23 -34 -5 -9 -14 -29 -20 -44 -6 -16 -15 -38 -20 -50 -44
-104 -52 -129 -49 -148 3 -20 12 -15 93 51 50 41 99 82 110 92 34 32 135 98
178 117 41 18 77 23 145 21 29 -1 32 -4 32 -32 0 -18 -5 -50 -12 -73 -14 -48
-98 -213 -139 -273 -16 -23 -29 -44 -29 -48 0 -4 -13 -25 -28 -48 -58 -86 -89
-197 -52 -189 121 28 136 29 159 9 76 -68 191 -83 255 -33 20 15 41 36 47 48
20 38 13 118 -19 198 -57 145 -52 238 18 314 66 71 162 112 298 125 39 4 75
10 78 14 10 10 34 -4 34 -20z m1690 -17 c0 -24 -6 -48 -14 -55 -9 -7 -47 -9
-120 -4 -71 4 -126 2 -164 -6 -243 -53 -390 -141 -545 -329 -68 -82 -97 -199
-61 -250 19 -28 88 -30 124 -5 14 10 37 25 51 33 75 43 250 274 335 443 26 50
58 63 69 28 15 -47 7 -93 -27 -161 -19 -39 -32 -72 -30 -75 3 -3 23 -5 44 -5
21 0 38 -3 38 -6 0 -3 -13 -32 -29 -63 -61 -115 -76 -205 -32 -181 11 5 36 10
56 10 31 0 35 -2 26 -18 -23 -43 -257 -130 -282 -105 -12 12 5 111 26 153 7
14 16 40 20 59 l7 33 -29 -17 c-17 -10 -50 -35 -74 -57 -45 -41 -185 -135
-229 -155 -41 -18 -105 -33 -142 -33 -55 0 -74 28 -70 108 4 104 59 200 202
353 85 90 304 223 445 269 39 12 80 26 93 31 13 5 35 9 49 9 15 0 40 4 57 9
63 19 112 29 159 30 l47 1 0 -44z m640 14 c0 -27 -19 -97 -40 -145 -21 -50
-94 -197 -131 -265 -44 -81 -99 -211 -99 -235 0 -11 13 -15 50 -15 53 0 61 -8
33 -32 -23 -19 -105 -58 -124 -58 -8 0 -23 -6 -34 -13 -11 -7 -35 -14 -52 -16
-29 -2 -33 0 -33 23 0 23 19 105 35 151 4 11 45 98 92 194 87 180 109 235 115
286 3 28 0 30 -32 33 -19 2 -39 7 -43 12 -17 16 181 106 241 109 18 1 22 -4
22 -29z m1140 17 c34 -17 37 -63 9 -119 -40 -79 -118 -134 -249 -177 -90 -30
-200 -42 -200 -22 0 15 -30 21 -51 11 -10 -6 -22 -22 -25 -35 -3 -14 -10 -25
-15 -25 -5 0 -9 -6 -9 -13 0 -7 -11 -37 -25 -66 -49 -101 -55 -210 -14 -247
30 -27 113 -25 172 6 66 33 152 120 212 213 52 81 77 94 83 44 6 -52 -45 -133
-123 -196 -148 -120 -257 -171 -369 -171 -85 0 -117 18 -136 76 -63 191 225
586 505 694 33 12 69 26 80 31 31 12 127 10 155 -4z m-3184 -44 c-8 -41 -80
-193 -146 -308 -74 -129 -141 -274 -138 -297 2 -18 11 -24 36 -26 36 -4 91 18
112 43 7 8 17 15 22 15 12 0 166 157 214 216 59 74 151 220 185 292 18 39 40
74 49 76 43 12 109 16 114 7 9 -13 -37 -118 -100 -231 -112 -199 -170 -335
-158 -372 5 -17 17 -23 38 -19 18 4 66 -11 66 -20 0 -12 -81 -51 -178 -84
-117 -41 -117 -41 -66 124 8 25 14 53 14 63 0 22 -23 24 -40 3 -27 -32 -188
-154 -243 -184 -49 -26 -68 -31 -127 -31 l-70 0 0 45 c0 47 20 137 44 195 8
19 17 42 20 50 3 8 19 38 36 65 67 111 118 213 130 259 12 45 12 50 -5 62 -10
8 -27 14 -36 14 -25 0 -32 17 -11 25 38 16 189 53 216 54 27 1 28 0 22 -36z
m2171 -50 c4 -9 -2 -30 -11 -47 -10 -17 -41 -75 -68 -129 -28 -54 -57 -101
-64 -104 -8 -3 -14 -11 -14 -18 0 -6 -18 -49 -40 -94 -22 -45 -40 -91 -40
-102 0 -12 -5 -19 -12 -16 -27 9 6 114 56 177 24 30 95 187 122 268 21 64 31
82 46 82 10 0 22 -8 25 -17z m-2977 -37 c0 -3 -4 -8 -10 -11 -5 -3 -10 -1 -10
4 0 6 5 11 10 11 6 0 10 -2 10 -4z m2065 -46 c3 -5 21 -10 39 -10 44 0 49 -8
26 -40 -11 -16 -20 -35 -20 -43 0 -8 -18 -49 -40 -92 -22 -43 -40 -86 -40 -96
0 -10 -4 -21 -10 -24 -5 -3 -10 -14 -10 -24 0 -26 -23 -71 -37 -71 -40 0 -41
11 -7 68 39 64 43 108 14 144 -19 25 -19 28 -3 73 12 36 13 55 5 81 -5 18 -7
35 -4 38 9 10 81 6 87 -4z m468 -2 c12 -7 24 -14 25 -15 4 -2 -26 -62 -70
-143 -42 -78 -45 -84 -74 -147 -26 -60 -51 -82 -75 -68 -8 5 -8 10 0 18 6 6
11 17 11 24 0 7 11 36 24 65 13 29 27 64 31 77 4 14 20 50 36 80 16 31 29 59
29 64 0 8 32 56 38 57 1 0 12 -6 25 -12z m-2207 -73 c34 -26 95 -19 137 16 26
22 37 26 37 15 0 -8 -5 -18 -10 -21 -6 -3 -19 -26 -30 -50 -11 -24 -24 -46
-30 -50 -8 -5 -79 -146 -92 -185 -3 -8 -9 3 -12 25 -13 75 -30 140 -38 150 -4
5 -8 22 -8 39 0 16 -5 44 -12 62 -6 17 -8 40 -4 50 6 16 9 15 25 -9 10 -15 26
-34 37 -42z m-362 -42 c11 -101 18 -138 27 -147 5 -6 9 -18 9 -28 0 -9 9 -33
20 -53 27 -48 25 -69 -6 -94 -29 -23 -54 -26 -82 -12 -9 5 -34 17 -56 27 -21
11 -40 25 -43 32 -3 6 -15 12 -27 12 -13 0 -25 3 -29 6 -7 8 39 98 59 115 8 6
14 17 14 24 0 6 14 31 30 54 17 23 38 57 47 76 9 19 20 35 24 35 4 0 10 -21
13 -47z m-881 -36 c-15 -31 -31 -57 -35 -57 -5 0 -14 15 -22 33 -14 35 -10 43
44 79 39 25 43 6 13 -55z m2557 14 c0 -5 -21 -40 -46 -78 -95 -142 -243 -259
-205 -161 12 31 113 156 142 175 13 9 39 29 57 45 33 29 52 35 52 19z m-2847
-97 c14 -5 13 -8 -1 -24 -9 -9 -39 -45 -66 -79 -28 -33 -54 -61 -60 -61 -5 0
-17 -6 -25 -14 -9 -8 -31 -17 -48 -21 l-33 -7 0 49 c0 31 7 59 20 78 11 17 20
40 20 52 0 12 6 24 13 26 17 8 162 8 180 1z m4927 0 c0 -16 -86 -125 -118
-151 -66 -53 -117 -69 -128 -40 -4 11 45 161 62 188 6 10 184 13 184 3z
m-3403 -196 c-3 -8 -6 -5 -6 6 -1 11 2 17 5 13 3 -3 4 -12 1 -19z"/>
<path d="M1255 4031 c-104 -16 -197 -70 -272 -157 -47 -55 -113 -187 -113
-227 0 -13 -5 -28 -11 -34 -16 -16 -6 -227 14 -298 20 -68 83 -178 141 -244
94 -109 265 -222 396 -260 25 -7 54 -17 65 -22 68 -29 356 -40 452 -18 94 22
129 32 170 50 24 11 48 19 55 19 37 1 66 67 38 85 -5 3 -10 13 -10 20 0 8 -11
38 -24 67 -13 29 -30 76 -39 103 -9 28 -43 132 -76 232 -139 423 -263 587
-502 663 -70 23 -208 33 -284 21z m180 -91 c70 -12 105 -21 129 -34 93 -51
135 -80 156 -107 14 -17 35 -41 48 -54 12 -12 22 -26 22 -30 0 -4 24 -58 53
-119 51 -105 71 -152 95 -221 20 -60 54 -171 64 -210 6 -22 26 -78 45 -125 19
-47 36 -94 37 -104 1 -21 -46 -54 -81 -55 -12 -1 -24 -5 -27 -10 -15 -23 -289
-33 -396 -14 -123 22 -282 92 -379 167 -65 49 -135 115 -144 136 -4 8 -16 29
-27 45 -37 57 -51 87 -72 148 -23 71 -36 201 -21 219 6 7 13 28 17 47 3 19 20
62 36 95 74 148 127 188 315 234 22 5 49 8 60 5 11 -3 43 -9 70 -13z"/>
<path d="M2885 3429 c-54 -28 -71 -47 -156 -174 -72 -109 -154 -199 -277 -305
-43 -38 -62 -60 -57 -70 7 -18 99 -91 129 -104 175 -72 265 -75 389 -15 22 11
43 19 49 19 11 0 158 121 158 130 0 3 15 22 34 42 19 20 47 63 62 95 24 49 29
74 32 154 4 113 -5 139 -70 192 -56 45 -95 57 -182 57 -53 0 -82 -5 -111 -21z
m169 -73 c21 -7 56 -30 77 -50 35 -32 39 -41 39 -84 0 -26 -9 -67 -20 -91 -11
-24 -20 -48 -20 -54 0 -31 -169 -203 -218 -221 -20 -8 -62 -23 -92 -35 -58
-22 -115 -27 -125 -11 -3 6 -15 10 -25 10 -11 0 -35 9 -55 20 -20 11 -41 20
-47 20 -6 0 -19 7 -29 16 -17 15 -14 19 44 69 77 66 130 122 147 155 7 14 21
34 31 45 11 11 40 52 65 90 59 90 72 105 109 121 38 17 70 17 119 0z"/>
<path d="M3825 3346 c-72 -36 -148 -104 -160 -143 -6 -21 -3 -23 34 -23 22 0
70 7 107 16 138 32 188 71 182 142 -3 36 -4 37 -48 40 -36 2 -60 -5 -115 -32z"/>
<path d="M8773 3362 c-23 -10 -48 -23 -55 -30 -6 -6 -16 -12 -21 -12 -20 0
-107 -95 -107 -117 0 -20 5 -23 40 -23 57 0 184 36 230 65 41 26 69 86 57 119
-9 22 -89 20 -144 -2z"/>
<path d="M2385 2185 c-45 -44 -45 -45 -45 -113 0 -39 5 -73 12 -80 9 -9 9 -15
0 -24 -7 -7 -12 -45 -12 -99 0 -79 2 -88 26 -112 l25 -26 434 0 433 -1 23 25
c30 31 36 31 61 0 19 -24 23 -25 142 -25 79 0 126 4 134 12 8 8 15 8 25 0 19
-16 332 -15 358 1 15 9 23 9 39 -1 12 -7 54 -12 105 -12 51 0 93 5 105 12 16
10 24 10 40 0 12 -7 54 -12 104 -12 77 0 85 2 110 26 18 19 26 37 26 63 0 32
5 39 38 56 70 37 82 59 82 155 0 95 -11 117 -80 159 -30 18 -50 21 -149 21
-92 0 -118 -3 -133 -16 -16 -16 -18 -16 -24 0 -5 13 -22 16 -94 16 -48 0 -102
-5 -119 -11 -24 -9 -38 -9 -54 0 -12 6 -96 13 -187 16 -91 2 -219 7 -284 10
l-119 6 -43 -42 -44 -43 -31 32 -31 32 -289 0 c-181 0 -290 4 -294 10 -4 6
-57 10 -126 10 l-120 0 -44 -45z m245 -50 c14 -9 13 -72 -2 -81 -6 -4 -22 6
-37 25 -42 51 -121 39 -121 -18 0 -20 44 -51 71 -51 15 0 31 -4 34 -10 3 -5
15 -10 25 -10 25 0 60 -51 60 -87 -1 -69 -99 -119 -160 -81 -16 10 -24 10 -40
0 -30 -19 -40 -7 -40 48 0 64 19 70 59 19 26 -31 38 -39 66 -39 68 0 90 65 33
100 -18 11 -40 20 -49 20 -32 0 -81 33 -93 62 -17 40 -9 74 23 99 22 18 35 20
94 16 37 -3 72 -9 77 -12z m971 -1 c5 -3 9 -21 9 -40 0 -29 -3 -34 -24 -34
-15 0 -26 7 -29 19 -3 13 -17 22 -41 26 -43 9 -61 3 -76 -25 -9 -17 -7 -24 16
-45 15 -14 35 -25 46 -25 33 0 105 -40 117 -66 18 -41 13 -64 -23 -100 -37
-37 -82 -45 -130 -23 -20 9 -29 9 -40 0 -8 -7 -20 -10 -26 -6 -14 8 -13 102 1
111 7 4 26 -10 46 -35 29 -35 40 -41 72 -41 44 0 61 14 61 52 0 21 -8 33 -32
48 -18 11 -40 20 -49 20 -21 0 -74 27 -89 45 -21 25 -14 84 12 112 22 24 27
25 96 19 41 -3 78 -8 83 -12z m-658 -16 c2 -7 2 -28 0 -45 -6 -37 -30 -44 -35
-10 -3 20 -9 22 -65 25 l-63 3 0 -45 0 -44 50 -7 c67 -9 68 -33 3 -37 l-48 -3
-3 -53 -3 -53 63 3 c60 3 63 4 66 31 2 15 9 27 17 27 15 0 26 -70 13 -86 -5
-8 -48 -12 -114 -13 -88 -1 -105 1 -111 15 -3 9 0 20 7 24 17 10 19 225 2 242
-7 7 -12 18 -12 25 0 18 226 19 233 1z m122 -23 c1 -66 38 -87 70 -39 12 19
14 29 6 37 -24 24 -11 37 33 37 49 0 69 -22 36 -40 -26 -14 -80 -94 -79 -117
0 -10 9 -31 20 -48 10 -16 24 -40 30 -52 6 -12 20 -24 30 -26 13 -3 17 -11 13
-21 -8 -21 -89 -22 -97 -1 -4 8 -2 17 3 20 15 9 12 27 -9 55 -19 24 -20 24
-39 7 -23 -21 -34 -54 -21 -62 4 -3 6 -12 2 -20 -7 -20 -89 -21 -96 -1 -4 9 1
17 12 21 19 6 91 106 91 125 0 20 -39 78 -77 115 -36 35 -29 46 25 43 45 -3
47 -4 47 -33z m705 21 c0 -8 -4 -18 -10 -21 -5 -3 -10 -28 -10 -56 l0 -49 65
0 65 0 0 48 c0 26 -5 53 -11 59 -19 19 0 33 47 33 46 0 61 -20 28 -38 -12 -7
-16 -32 -20 -115 -4 -98 -2 -108 17 -126 28 -26 17 -41 -31 -41 -43 0 -58 13
-40 35 6 7 10 35 8 62 l-3 48 -53 3 c-31 2 -60 -2 -68 -9 -19 -15 -18 -74 1
-93 28 -28 18 -46 -24 -46 -42 0 -61 14 -42 33 7 7 11 55 11 127 0 72 -4 120
-11 127 -19 19 0 33 42 33 27 0 39 -4 39 -14z m473 -17 c65 -54 81 -133 42
-209 -39 -73 -140 -101 -214 -59 -54 30 -74 64 -79 131 -4 48 -1 64 18 91 37
54 77 76 140 76 48 1 61 -3 93 -30z m265 20 c38 -13 62 -48 62 -91 -1 -57 -53
-98 -125 -98 -34 0 -35 -1 -35 -39 0 -31 4 -40 21 -44 35 -9 16 -32 -31 -35
-48 -4 -76 13 -47 29 15 9 17 26 17 129 0 110 -1 119 -20 125 -20 6 -25 16
-13 28 10 11 137 8 171 -4z m-1194 -115 c5 -42 3 -56 -13 -75 l-19 -24 -26 24
c-14 14 -26 31 -26 40 0 13 70 95 75 88 1 -1 5 -25 9 -53z"/>
<path d="M4070 2055 c-28 -29 -33 -42 -33 -80 0 -55 18 -92 55 -111 125 -65
234 104 128 199 -46 41 -105 38 -150 -8z m100 -87 c0 -24 -14 -30 -36 -14 -18
14 -18 15 0 35 21 23 36 14 36 -21z"/>
<path d="M4415 2092 c-7 -7 -6 -117 0 -124 10 -9 87 9 96 23 14 23 10 65 -8
81 -18 16 -79 29 -88 20z"/>
<path d="M5126 2179 c-31 -36 -33 -75 -6 -109 28 -36 28 -147 0 -192 -28 -47
-26 -84 9 -119 l29 -29 149 0 c101 0 153 4 161 12 9 9 18 9 37 0 14 -7 66 -12
115 -12 71 0 96 4 129 22 23 12 41 25 41 30 0 19 38 6 65 -22 23 -24 37 -30
71 -30 24 0 55 5 69 12 19 9 28 9 37 0 8 -8 63 -12 174 -12 161 0 161 0 188
26 l26 27 26 -27 c26 -25 29 -26 159 -26 119 0 134 2 150 20 17 19 18 19 43 0
37 -29 188 -29 220 0 26 25 33 25 78 -1 33 -18 49 -20 138 -15 56 3 110 5 121
5 349 -9 629 -8 646 2 46 24 64 130 33 195 -15 31 -15 37 0 68 29 61 14 150
-31 186 -25 19 -35 20 -327 16 -165 -3 -310 -5 -321 -5 -11 0 -65 2 -119 5
-71 4 -107 2 -123 -7 -19 -10 -28 -10 -43 -1 -14 8 -98 12 -289 12 l-269 0
-36 -40 c-20 -22 -36 -45 -36 -50 0 -6 -4 -10 -10 -10 -5 0 -10 11 -10 24 0
13 -12 35 -26 50 l-27 26 -301 -1 c-200 0 -305 -4 -314 -11 -9 -8 -16 -8 -24
0 -8 8 -48 12 -107 12 -100 0 -132 -10 -188 -62 l-21 -20 -12 24 c-26 49 -48
58 -152 58 -95 0 -96 0 -122 -31z m189 -58 c3 -6 -4 -15 -15 -21 -18 -10 -20
-20 -20 -129 l0 -119 43 -4 c55 -6 65 -2 69 30 2 14 9 27 16 30 8 2 12 -11 12
-47 l0 -51 -104 0 c-103 0 -139 11 -102 32 23 13 24 239 1 258 -8 7 -15 16
-15 21 0 12 107 11 115 0z m387 -13 c100 -57 101 -214 1 -275 -106 -64 -253
12 -253 130 0 128 139 208 252 145z m183 12 c3 -5 0 -18 -7 -29 -9 -15 -9 -26
-1 -43 6 -13 17 -43 24 -68 7 -25 15 -49 19 -53 11 -13 29 16 50 83 15 47 17
66 9 76 -21 26 -2 44 45 44 51 0 68 -21 30 -39 -13 -6 -24 -19 -24 -30 0 -11
-4 -23 -10 -26 -5 -3 -10 -17 -10 -30 0 -13 -4 -27 -10 -30 -5 -3 -10 -17 -10
-30 0 -13 -4 -26 -8 -29 -4 -3 -14 -28 -22 -55 -23 -85 -40 -70 -90 82 -25 76
-52 139 -63 148 -11 9 -17 21 -13 28 9 13 82 15 91 1z m444 -4 c18 -21 10 -70
-11 -74 -13 -3 -18 3 -18 22 0 25 -2 26 -66 26 l-65 0 3 -47 3 -48 48 -3 c32
-2 47 -8 47 -17 0 -9 -15 -15 -47 -17 l-48 -3 -3 -52 -3 -53 65 0 c64 0 66 1
66 25 0 19 5 25 21 25 18 0 20 -5 17 -42 l-3 -43 -117 -3 c-99 -2 -118 0 -118
12 0 8 5 18 10 21 6 4 10 57 10 126 0 98 -3 121 -15 125 -12 5 -13 10 -4 20
17 20 212 20 228 0z m393 -8 c5 -32 -2 -68 -13 -68 -6 0 -20 11 -32 25 -21 23
-45 30 -94 27 -19 -2 -23 -8 -23 -37 0 -20 6 -37 13 -39 103 -30 128 -40 144
-59 11 -12 23 -30 26 -39 9 -26 -11 -75 -38 -92 -29 -19 -94 -21 -131 -4 -22
10 -28 10 -32 0 -2 -6 -10 -12 -18 -12 -10 0 -14 14 -14 55 0 30 4 55 9 55 20
0 41 -13 41 -26 0 -21 42 -44 82 -44 32 0 41 5 50 26 20 43 -5 62 -144 110
-24 9 -39 59 -27 91 16 43 38 52 120 53 72 0 77 -1 81 -22z m296 10 c7 -7 12
-27 12 -46 0 -26 -4 -33 -17 -30 -10 2 -19 13 -21 26 -3 17 -10 22 -33 22
l-29 0 0 -120 c0 -100 3 -120 16 -128 28 -15 6 -32 -42 -32 -46 0 -61 20 -29
38 13 7 15 28 13 123 l-3 114 -27 3 c-22 3 -29 -2 -34 -22 -10 -41 -34 -32
-34 12 0 21 3 42 7 45 12 13 208 8 221 -5z m286 -11 c27 -15 47 -38 64 -70 22
-44 23 -53 12 -95 -22 -87 -76 -132 -160 -132 -168 0 -230 209 -88 294 55 33
118 34 172 3z m323 -3 c34 -26 43 -77 17 -105 -14 -16 -15 -23 -6 -45 7 -13
12 -40 12 -59 0 -18 6 -40 13 -47 20 -20 9 -38 -23 -38 -27 0 -29 3 -35 48
-10 80 -14 89 -37 96 -39 10 -66 7 -72 -10 -11 -29 -6 -81 9 -94 30 -25 17
-40 -35 -40 -52 0 -65 15 -35 40 22 19 22 216 -1 241 -29 32 -8 41 81 37 66
-2 90 -8 112 -24z m317 13 c12 -9 17 -23 14 -42 -4 -38 -25 -43 -38 -10 -9 25
-13 26 -72 23 l-63 -3 0 -45 0 -45 53 -3 c36 -2 52 -7 52 -17 0 -10 -16 -15
-52 -17 l-53 -3 -3 -49 c-2 -27 1 -52 7 -55 8 -5 61 -6 119 -2 6 1 12 12 12
26 0 19 5 25 21 25 18 0 20 -5 17 -42 l-3 -43 -124 0 c-83 0 -126 4 -128 11
-2 6 5 14 17 17 19 5 20 13 20 125 0 111 -2 121 -19 127 -12 4 -18 12 -14 21
7 19 210 20 237 1z m-1504 -130 c0 -7 -6 -22 -14 -33 -14 -18 -15 -18 -21 -1
-4 9 -5 24 -1 32 7 18 36 20 36 2z"/>
<path d="M5564 2080 c-39 -16 -64 -59 -64 -111 0 -40 5 -55 31 -84 28 -32 36
-35 83 -35 83 1 129 55 118 142 -8 74 -94 118 -168 88z m84 -106 c4 -29 -23
-51 -43 -34 -8 7 -15 21 -15 30 0 35 53 38 58 4z"/>
<path d="M7146 2060 c-41 -36 -57 -107 -33 -143 37 -54 57 -67 105 -67 76 0
122 48 122 126 0 29 -8 44 -39 75 -51 51 -103 54 -155 9z m94 -79 c13 -26 13
-28 -5 -35 -35 -13 -58 17 -33 42 17 17 26 15 38 -7z"/>
<path d="M7499 2078 c-6 -82 -6 -83 34 -86 46 -4 77 19 77 55 0 16 -8 27 -26
33 -36 14 -84 12 -85 -2z"/>
<path d="M4835 2085 c-61 -35 -80 -67 -80 -133 1 -70 35 -126 99 -161 58 -32
97 -24 164 35 76 67 87 92 68 158 -17 58 -43 87 -100 110 -53 22 -103 19 -151
-9z"/>
</g>
</svg>
